<?xml version="1.0" encoding="UTF-8" standalone="no"?>
<!DOCTYPE svg PUBLIC "-//W3C//DTD SVG 1.1//EN" "http://www.w3.org/Graphics/SVG/1.1/DTD/svg11.dtd">
<!-- Generated by Microsoft Visio, SVG Export dfd1-zlozenie_zamowienia.svg DFD - 1 -  -->
<svg xmlns="http://www.w3.org/2000/svg" xmlns:xlink="http://www.w3.org/1999/xlink" xmlns:ev="http://www.w3.org/2001/xml-events"
		xmlns:v="http://schemas.microsoft.com/visio/2003/SVGExtensions/" width="8.26772in" height="11.6929in"
		viewBox="0 0 595.276 841.89" xml:space="preserve" color-interpolation-filters="sRGB" class="st12">
	<v:documentProperties v:langID="1045" v:metric="true" v:viewMarkup="false">
		<v:userDefs>
			<v:ud v:nameU="msvNoAutoConnect" v:val="VT0(1):26"/>
		</v:userDefs>
	</v:documentProperties>

	<style type="text/css">
	<![CDATA[
		.st1 {fill:#d7e3bf;stroke:#000000;stroke-linecap:round;stroke-linejoin:round;stroke-width:0.24}
		.st2 {fill:#000000;font-family:Calibri;font-size:0.666664em}
		.st3 {fill:#fee599;stroke:#000000;stroke-linecap:round;stroke-linejoin:round;stroke-width:0.24}
		.st4 {font-size:1em}
		.st5 {marker-end:url(#mrkr4-14);stroke:#000000;stroke-linecap:round;stroke-linejoin:round;stroke-width:0.75}
		.st6 {fill:#000000;fill-opacity:1;stroke:#000000;stroke-opacity:1;stroke-width:0.22935779816514}
		.st7 {fill:#ffffff;stroke:none;stroke-linecap:butt;stroke-width:7.2}
		.st8 {fill:#fcebdd;stroke:#000000;stroke-linecap:round;stroke-linejoin:round;stroke-width:0.24}
		.st9 {marker-end:url(#mrkr4-38);stroke:#000000;stroke-linecap:round;stroke-linejoin:round;stroke-width:0.75}
		.st10 {fill:#ffffff;stroke:none;stroke-linecap:butt}
		.st11 {stroke:#000000;stroke-linecap:round;stroke-linejoin:round;stroke-width:0.24}
		.st12 {fill:none;fill-rule:evenodd;font-size:12px;overflow:visible;stroke-linecap:square;stroke-miterlimit:3}
	]]>
	</style>

	<defs id="Markers">
		<g id="lend4">
			<path d="M 2 1 L 0 0 L 2 -1 L 2 1 " style="stroke:none"/>
		</g>
		<marker id="mrkr4-14" class="st6" v:arrowType="4" v:arrowSize="2" v:setback="8.72" refX="-8.72" orient="auto"
				markerUnits="strokeWidth" overflow="visible">
			<use xlink:href="#lend4" transform="scale(-4.36,-4.36) "/>
		</marker>
		<marker id="mrkr4-38" class="st6" v:arrowType="4" v:arrowSize="2" v:setback="8.24" refX="-8.24" orient="auto"
				markerUnits="strokeWidth" overflow="visible">
			<use xlink:href="#lend4" transform="scale(-4.36,-4.36) "/>
		</marker>
	</defs>
	<g v:mID="5" v:index="3" v:groupContext="foregroundPage">
		<title>DFD - 1 - Złożenie zamówienia</title>
		<v:pageProperties v:drawingScale="0.0393701" v:pageScale="0.0393701" v:drawingUnits="24" v:shadowOffsetX="8.50394"
				v:shadowOffsetY="-8.50394"/>
		<v:layer v:name="Flowchart" v:index="0"/>
		<v:layer v:name="Connector" v:index="1"/>
		<g id="shape4-1" v:mID="4" v:groupContext="shape" v:layerMember="0" transform="translate(51.874,-765.354)">
			<title>External interactor</title>
			<desc>Klient</desc>
			<v:custProps>
				<v:cp v:nameU="Cost" v:lbl="Cost" v:type="7" v:format="@" v:langID="1033"/>
				<v:cp v:nameU="Duration" v:lbl="Duration" v:type="2" v:langID="1033"/>
				<v:cp v:nameU="Resources" v:lbl="Resources" v:langID="1033"/>
			</v:custProps>
			<v:userDefs>
				<v:ud v:nameU="visVersion" v:val="VT0(15):26"/>
			</v:userDefs>
			<v:textBlock v:margins="rect(1,1,1,1)" v:tabSpace="42.5197"/>
			<v:textRect cx="28.3465" cy="827.717" width="56.7" height="28.3465"/>
			<rect x="0" y="813.543" width="56.6929" height="28.3465" class="st1"/>
			<text x="19" y="830.12" class="st2" v:langID="1045"><v:paragraph v:horizAlign="1"/><v:tabList/>Klient</text>		</g>
		<g id="shape5-4" v:mID="5" v:groupContext="shape" v:layerMember="0" transform="translate(51.874,-651.969)">
			<title>Data process</title>
			<desc>1.1. Przetwarzanie formularza</desc>
			<v:custProps>
				<v:cp v:nameU="Cost" v:lbl="Cost" v:type="7" v:format="@" v:langID="1033"/>
				<v:cp v:nameU="Duration" v:lbl="Duration" v:type="2" v:langID="1033"/>
				<v:cp v:nameU="Resources" v:lbl="Resources" v:langID="1033"/>
			</v:custProps>
			<v:userDefs>
				<v:ud v:nameU="visVersion" v:val="VT0(15):26"/>
			</v:userDefs>
			<v:textBlock v:margins="rect(1,1,1,1)" v:tabSpace="42.5197"/>
			<v:textRect cx="28.3465" cy="813.543" width="56.7" height="56.6929"/>
			<path d="M0 813.54 A28.3465 28.3465 0 1 1 56.69 813.54 A28.3465 28.3465 0 0 1 0 813.54 Z" class="st3"/>
			<text x="22.27" y="806.34" class="st2" v:langID="1045"><v:paragraph v:horizAlign="1"/><v:tabList/>1.1. <tspan x="5.3"
						dy="1.2em" class="st4">Przetwarzanie </tspan><tspan x="10.6" dy="1.2em" class="st4">formularza</tspan></text>		</g>
		<g id="shape7-9" v:mID="7" v:groupContext="shape" v:layerMember="1" transform="translate(73.1339,-765.354)">
			<title>Dynamic connector</title>
			<desc>Formularz usługi</desc>
			<v:textBlock v:margins="rect(4,4,4,4)" v:tabSpace="42.5197"/>
			<v:textRect cx="7.08661" cy="870.236" width="63.64" height="17.6036"/>
			<path d="M7.09 841.89 C7.09 854.12 7.09 876.92 7.09 892.04" class="st5"/>
			<rect v:rectContext="textBkgnd" x="-19.8233" y="865.436" width="53.8201" height="9.59985" class="st7"/>
			<text x="-19.82" y="872.64" class="st2" v:langID="1045"><v:paragraph v:horizAlign="1"/><v:tabList/>Formularz usługi</text>		</g>
		<g id="shape11-17" v:mID="11" v:groupContext="shape" v:layerMember="0" transform="translate(193.606,-651.969)">
			<title>Data process.11</title>
			<desc>1.2. Przetwarzanie zamówienia</desc>
			<v:custProps>
				<v:cp v:nameU="Cost" v:lbl="Cost" v:type="7" v:format="@" v:langID="1033"/>
				<v:cp v:nameU="Duration" v:lbl="Duration" v:type="2" v:langID="1033"/>
				<v:cp v:nameU="Resources" v:lbl="Resources" v:langID="1033"/>
			</v:custProps>
			<v:userDefs>
				<v:ud v:nameU="visVersion" v:val="VT0(15):26"/>
			</v:userDefs>
			<v:textBlock v:margins="rect(1,1,1,1)" v:tabSpace="42.5197"/>
			<v:textRect cx="28.3465" cy="813.543" width="56.7" height="56.6929"/>
			<path d="M0 813.54 A28.3465 28.3465 0 1 1 56.69 813.54 A28.3465 28.3465 0 0 1 0 813.54 Z" class="st3"/>
			<text x="22.27" y="806.34" class="st2" v:langID="1045"><v:paragraph v:horizAlign="1"/><v:tabList/>1.2. <tspan x="5.3"
						dy="1.2em" class="st4">Przetwarzanie </tspan><tspan x="8.84" dy="1.2em" class="st4">zamówienia</tspan></text>		</g>
		<g id="shape12-22" v:mID="12" v:groupContext="shape" v:layerMember="1" transform="translate(108.567,-673.228)">
			<title>Dynamic connector.12</title>
			<desc>Dane zamówienia</desc>
			<v:textBlock v:margins="rect(4,4,4,4)" v:tabSpace="42.5197"/>
			<v:textRect cx="42.5197" cy="834.803" width="67.57" height="17.6036"/>
			<path d="M0 834.8 C19.26 834.8 55.96 834.8 78.5 834.8" class="st5"/>
			<rect v:rectContext="textBkgnd" x="13.6432" y="830.003" width="57.7532" height="9.59985" class="st7"/>
			<text x="13.64" y="837.2" class="st2" v:langID="1045"><v:paragraph v:horizAlign="1"/><v:tabList/>Dane zamówienia</text>		</g>
		<g id="shape13-29" v:mID="13" v:groupContext="shape" v:layerMember="0" transform="translate(119.906,-544.252)">
			<title>Data process.13</title>
			<desc>2. Zarządzanie klientami</desc>
			<v:custProps>
				<v:cp v:nameU="Cost" v:lbl="Cost" v:type="7" v:format="@" v:langID="1033"/>
				<v:cp v:nameU="Duration" v:lbl="Duration" v:type="2" v:langID="1033"/>
				<v:cp v:nameU="Resources" v:lbl="Resources" v:langID="1033"/>
			</v:custProps>
			<v:userDefs>
				<v:ud v:nameU="visVersion" v:val="VT0(15):26"/>
			</v:userDefs>
			<v:textBlock v:margins="rect(1,1,1,1)" v:tabSpace="42.5197"/>
			<v:textRect cx="28.3465" cy="813.543" width="56.7" height="56.6929"/>
			<path d="M0 813.54 A28.3465 28.3465 0 1 1 56.69 813.54 A28.3465 28.3465 0 0 1 0 813.54 Z" class="st8"/>
			<text x="5.12" y="811.14" class="st2" v:langID="1045"><v:paragraph v:horizAlign="1"/><v:tabList/>2. Zarządzanie <tspan
						x="13.23" dy="1.2em" class="st4">klientami</tspan></text>		</g>
		<g id="shape15-33" v:mID="15" v:groupContext="shape" v:layerMember="1" transform="translate(80.2205,-651.969)">
			<title>Dynamic connector.15</title>
			<desc>Dane zamawiającego</desc>
			<v:textBlock v:margins="rect(4,4,4,4)" v:tabSpace="42.5197"/>
			<v:textRect cx="3.35167" cy="893.328" width="78.26" height="17.6036"/>
			<path d="M0 841.89 C0 861.73 -0 894.01 8.75 908.79 C14.61 918.68 24.4 920.73 33.15 921.15 L33.51 921.16" class="st9"/>
			<rect v:rectContext="textBkgnd" x="-30.8686" y="888.528" width="68.4407" height="9.59985" class="st7"/>
			<text x="-30.87" y="895.73" class="st2" v:langID="1045"><v:paragraph v:horizAlign="1"/><v:tabList/>Dane zamawiającego</text>		</g>
		<g id="shape16-41" v:mID="16" v:groupContext="shape" v:layerMember="0" transform="translate(261.638,-544.252)">
			<title>Data process.16</title>
			<desc>1.3. Ustalenie osoby odpowiedzialnej</desc>
			<v:custProps>
				<v:cp v:nameU="Cost" v:lbl="Cost" v:type="7" v:format="@" v:langID="1033"/>
				<v:cp v:nameU="Duration" v:lbl="Duration" v:type="2" v:langID="1033"/>
				<v:cp v:nameU="Resources" v:lbl="Resources" v:langID="1033"/>
			</v:custProps>
			<v:userDefs>
				<v:ud v:nameU="visVersion" v:val="VT0(15):26"/>
			</v:userDefs>
			<v:textBlock v:margins="rect(1,1,1,1)" v:tabSpace="42.5197"/>
			<v:textRect cx="28.3465" cy="813.543" width="56.7" height="56.6929"/>
			<path d="M0 813.54 A28.3465 28.3465 0 1 1 56.69 813.54 A28.3465 28.3465 0 0 1 0 813.54 Z" class="st3"/>
			<text x="6.06" y="806.34" class="st2" v:langID="1045"><v:paragraph v:horizAlign="1"/><v:tabList/>1.3. Ustalenie <tspan
						x="18.65" dy="1.2em" class="st4">osoby </tspan><tspan x="1.67" dy="1.2em" class="st4">odpowiedzialnej</tspan></text>		</g>
		<g id="shape17-46" v:mID="17" v:groupContext="shape" v:layerMember="0" transform="translate(363.685,-544.252)">
			<title>Data process.17</title>
			<desc>1.4. Ustalenie terminu realizacji</desc>
			<v:custProps>
				<v:cp v:nameU="Cost" v:lbl="Cost" v:type="7" v:format="@" v:langID="1033"/>
				<v:cp v:nameU="Duration" v:lbl="Duration" v:type="2" v:langID="1033"/>
				<v:cp v:nameU="Resources" v:lbl="Resources" v:langID="1033"/>
			</v:custProps>
			<v:userDefs>
				<v:ud v:nameU="visVersion" v:val="VT0(15):26"/>
			</v:userDefs>
			<v:textBlock v:margins="rect(1,1,1,1)" v:tabSpace="42.5197"/>
			<v:textRect cx="28.3465" cy="813.543" width="56.7" height="56.6929"/>
			<path d="M0 813.54 A28.3465 28.3465 0 1 1 56.69 813.54 A28.3465 28.3465 0 0 1 0 813.54 Z" class="st3"/>
			<text x="6.06" y="806.34" class="st2" v:langID="1045"><v:paragraph v:horizAlign="1"/><v:tabList/>1.4. Ustalenie <tspan
						x="15.31" dy="1.2em" class="st4">terminu </tspan><tspan x="14.15" dy="1.2em" class="st4">realizacji</tspan></text>		</g>
		<g id="shape18-51" v:mID="18" v:groupContext="shape" v:layerMember="0" transform="translate(465.732,-544.252)">
			<title>Data process.18</title>
			<desc>1.5. Obliczenie ceny zamówienia</desc>
			<v:custProps>
				<v:cp v:nameU="Cost" v:lbl="Cost" v:type="7" v:format="@" v:langID="1033"/>
				<v:cp v:nameU="Duration" v:lbl="Duration" v:type="2" v:langID="1033"/>
				<v:cp v:nameU="Resources" v:lbl="Resources" v:langID="1033"/>
			</v:custProps>
			<v:userDefs>
				<v:ud v:nameU="visVersion" v:val="VT0(15):26"/>
			</v:userDefs>
			<v:textBlock v:margins="rect(1,1,1,1)" v:tabSpace="42.5197"/>
			<v:textRect cx="28.3465" cy="813.543" width="56.7" height="56.6929"/>
			<path d="M0 813.54 A28.3465 28.3465 0 1 1 56.69 813.54 A28.3465 28.3465 0 0 1 0 813.54 Z" class="st3"/>
			<text x="4.51" y="806.34" class="st2" v:langID="1045"><v:paragraph v:horizAlign="1"/><v:tabList/>1.5. Obliczenie <tspan
						x="20.75" dy="1.2em" class="st4">ceny </tspan><tspan x="8.84" dy="1.2em" class="st4">zamówienia</tspan></text>		</g>
		<g id="shape19-56" v:mID="19" v:groupContext="shape" v:layerMember="1" transform="translate(250.299,-680.315)">
			<title>Dynamic connector.19</title>
			<desc>Szczegóły usługi</desc>
			<v:textBlock v:margins="rect(4,4,4,4)" v:tabSpace="42.5197"/>
			<v:textRect cx="62.3622" cy="836.22" width="61.69" height="17.6036"/>
			<path d="M0 841.89 C35.43 841.89 96.73 844.15 122.85 861.13 C142.98 874.23 142.21 896.07 141.82 914.72 L141.82 915.08"
					class="st9"/>
			<rect v:rectContext="textBkgnd" x="36.4269" y="831.421" width="51.8708" height="9.59985" class="st7"/>
			<text x="36.43" y="838.62" class="st2" v:langID="1045"><v:paragraph v:horizAlign="1"/><v:tabList/>Szczegóły usługi</text>		</g>
		<g id="shape22-63" v:mID="22" v:groupContext="shape" v:layerMember="1" transform="translate(330.009,-674.988)">
			<title>Dynamic connector.22</title>
			<path d="M0 841.89 C-10.01 841.89 -23.86 841.89 -31.32 853.71 C-39.06 865.98 -39.92 890.99 -40.01 909.39 L-40.01 909.75"
					class="st9"/>
		</g>
		<g id="shape23-68" v:mID="23" v:groupContext="shape" v:layerMember="1" transform="translate(330.009,-674.988)">
			<title>Dynamic connector.23</title>
			<path d="M0 841.89 C41.02 841.89 108.29 841.89 138.79 858.49 C161.2 870.69 163.74 891.85 164.03 909.39 L164.03 909.75"
					class="st9"/>
		</g>
		<g id="shape24-73" v:mID="24" v:groupContext="shape" v:layerMember="0" transform="translate(261.638,-408.189)">
			<title>Data process.24</title>
			<desc>1.6. Generowanie szczegółowego zamówienia</desc>
			<v:custProps>
				<v:cp v:nameU="Cost" v:lbl="Cost" v:type="7" v:format="@" v:langID="1033"/>
				<v:cp v:nameU="Duration" v:lbl="Duration" v:type="2" v:langID="1033"/>
				<v:cp v:nameU="Resources" v:lbl="Resources" v:langID="1033"/>
			</v:custProps>
			<v:userDefs>
				<v:ud v:nameU="visVersion" v:val="VT0(15):26"/>
			</v:userDefs>
			<v:textBlock v:margins="rect(1,1,1,1)" v:tabSpace="42.5197"/>
			<v:textRect cx="28.3465" cy="813.543" width="56.7" height="56.6929"/>
			<path d="M0 813.54 A28.3465 28.3465 0 1 1 56.69 813.54 A28.3465 28.3465 0 0 1 0 813.54 Z" class="st3"/>
			<text x="22.27" y="801.54" class="st2" v:langID="1045"><v:paragraph v:horizAlign="1"/><v:tabList/>1.6. <tspan x="6.45"
						dy="1.2em" class="st4">Generowanie </tspan><tspan x="4.01" dy="1.2em" class="st4">szczegółowego </tspan><tspan
						x="8.84" dy="1.2em" class="st4">zamówienia</tspan></text>		</g>
		<g id="shape25-79" v:mID="25" v:groupContext="shape" v:layerMember="1" transform="translate(148.252,-544.252)">
			<title>Dynamic connector.25</title>
			<desc>ID klienta</desc>
			<v:textBlock v:margins="rect(4,4,4,4)" v:tabSpace="42.5197"/>
			<v:textRect cx="22.7242" cy="930.734" width="40.57" height="17.6036"/>
			<path d="M0 841.89 C0 868.82 -0 908.92 20.96 929.12 C40.64 948.08 78.8 949.49 106.85 949.6 L107.21 949.6" class="st9"/>
			<rect v:rectContext="textBkgnd" x="7.34945" y="925.934" width="30.7496" height="9.59985" class="st10"/>
			<text x="7.35" y="933.13" class="st2" v:langID="1045"><v:paragraph v:horizAlign="1"/><v:tabList/>ID klienta</text>		</g>
		<g id="shape26-86" v:mID="26" v:groupContext="shape" v:layerMember="1" transform="translate(282.898,-544.252)">
			<title>Dynamic connector.26</title>
			<desc>Obsługa odpowiedzialna</desc>
			<v:textBlock v:margins="rect(4,4,4,4)" v:tabSpace="42.5197"/>
			<v:textRect cx="7.08661" cy="881.575" width="89.32" height="17.6036"/>
			<path d="M7.09 841.89 C7.09 859.74 7.09 893.64 7.09 914.72" class="st5"/>
			<rect v:rectContext="textBkgnd" x="-32.6629" y="876.775" width="79.4993" height="9.59985" class="st7"/>
			<text x="-32.66" y="883.97" class="st2" v:langID="1045"><v:paragraph v:horizAlign="1"/><v:tabList/>Obsługa odpowiedzialna</text>		</g>
		<g id="shape27-93" v:mID="27" v:groupContext="shape" v:layerMember="1" transform="translate(392.031,-544.252)">
			<title>Dynamic connector.27</title>
			<desc>Termin realizacji</desc>
			<v:textBlock v:margins="rect(4,4,4,4)" v:tabSpace="42.5197"/>
			<v:textRect cx="-8.52305" cy="918.871" width="63.12" height="17.6036"/>
			<path d="M0 841.89 C-0 868.82 0 911.27 -15.26 931.41 C-27.48 947.54 -49.49 949.37 -67.16 949.58 L-67.52 949.58"
					class="st9"/>
			<rect v:rectContext="textBkgnd" x="-35.1749" y="914.071" width="53.304" height="9.59985" class="st7"/>
			<text x="-35.17" y="921.27" class="st2" v:langID="1045"><v:paragraph v:horizAlign="1"/><v:tabList/>Termin realizacji</text>		</g>
		<g id="shape28-100" v:mID="28" v:groupContext="shape" v:layerMember="1" transform="translate(494.079,-544.252)">
			<title>Dynamic connector.28</title>
			<desc>Końcowa cena</desc>
			<v:textBlock v:margins="rect(4,4,4,4)" v:tabSpace="42.5197"/>
			<v:textRect cx="-54.6414" cy="938.565" width="56.75" height="17.6036"/>
			<path d="M0 841.89 C0 868.82 -0 906.64 -28.88 926.75 C-60.12 948.5 -125.13 949.55 -169.21 949.6 L-169.57 949.6"
					class="st9"/>
			<rect v:rectContext="textBkgnd" x="-78.1097" y="933.766" width="46.9369" height="9.59985" class="st7"/>
			<text x="-78.11" y="940.97" class="st2" v:langID="1045"><v:paragraph v:horizAlign="1"/><v:tabList/>Końcowa cena</text>		</g>
		<g id="shape29-107" v:mID="29" v:groupContext="shape" v:layerMember="1" transform="translate(282.898,-408.189)">
			<title>Dynamic connector.29</title>
			<desc>Szczegoły zamówienia</desc>
			<v:textBlock v:margins="rect(4,4,4,4)" v:tabSpace="42.5197"/>
			<v:textRect cx="7.08661" cy="870.236" width="81.58" height="17.6036"/>
			<path d="M7.09 841.89 C7.09 854.12 7.09 876.92 7.09 892.04" class="st5"/>
			<rect v:rectContext="textBkgnd" x="-28.7938" y="865.436" width="71.761" height="9.59985" class="st10"/>
			<text x="-28.79" y="872.64" class="st2" v:langID="1045"><v:paragraph v:horizAlign="1"/><v:tabList/>Szczegoły zamówienia</text>		</g>
		<g id="shape30-114" v:mID="30" v:groupContext="shape" v:layerMember="0" transform="translate(261.638,-294.803)">
			<title>Data process.30</title>
			<desc>3. Akceptacja zamówienia</desc>
			<v:custProps>
				<v:cp v:nameU="Cost" v:lbl="Cost" v:type="7" v:format="@" v:langID="1033"/>
				<v:cp v:nameU="Duration" v:lbl="Duration" v:type="2" v:langID="1033"/>
				<v:cp v:nameU="Resources" v:lbl="Resources" v:langID="1033"/>
			</v:custProps>
			<v:userDefs>
				<v:ud v:nameU="visVersion" v:val="VT0(15):26"/>
			</v:userDefs>
			<v:textBlock v:margins="rect(1,1,1,1)" v:tabSpace="42.5197"/>
			<v:textRect cx="28.3465" cy="813.543" width="56.7" height="56.6929"/>
			<path d="M0 813.54 A28.3465 28.3465 0 1 1 56.69 813.54 A28.3465 28.3465 0 0 1 0 813.54 Z" class="st8"/>
			<text x="6.67" y="811.14" class="st2" v:langID="1045"><v:paragraph v:horizAlign="1"/><v:tabList/>3. Akceptacja <tspan
						x="8.84" dy="1.2em" class="st4">zamówienia</tspan></text>		</g>
		<g id="shape31-118" v:mID="31" v:groupContext="shape" v:layerMember="0" transform="translate(505.417,-666.142)">
			<title>Data store</title>
			<desc>Cennik</desc>
			<v:custProps>
				<v:cp v:nameU="Cost" v:lbl="Cost" v:type="7" v:format="@" v:langID="1033"/>
				<v:cp v:nameU="Duration" v:lbl="Duration" v:type="2" v:langID="1033"/>
				<v:cp v:nameU="Resources" v:lbl="Resources" v:langID="1033"/>
			</v:custProps>
			<v:userDefs>
				<v:ud v:nameU="visVersion" v:val="VT0(15):26"/>
			</v:userDefs>
			<v:textBlock v:margins="rect(1,1,1,1)" v:tabSpace="42.5197"/>
			<v:textRect cx="28.3465" cy="827.717" width="56.7" height="28.3465"/>
			<path d="M0 841.89 L56.69 841.89" class="st11"/>
			<path d="M0 813.54 L56.69 813.54" class="st11"/>
			<rect v:rectContext="textBkgnd" x="17.284" y="822.917" width="22.1248" height="9.59985" class="st7"/>
			<text x="17.28" y="830.12" class="st2" v:langID="1045"><v:paragraph v:horizAlign="1"/><v:tabList/>Cennik</text>		</g>
		<g id="shape32-124" v:mID="32" v:groupContext="shape" v:layerMember="1" transform="translate(535.181,-666.142)">
			<title>Dynamic connector.32</title>
			<desc>Ceny usług</desc>
			<v:textBlock v:margins="rect(4,4,4,4)" v:tabSpace="42.5197"/>
			<v:textRect cx="-1.93035" cy="890.825" width="44.98" height="17.6036"/>
			<path d="M-1.42 841.89 C-1.42 865.28 -1.42 905.21 -4.17 922.42 C-4.95 927.28 -5.95 930.33 -7.05 932.24 L-7.36 932.42"
					class="st9"/>
			<rect v:rectContext="textBkgnd" x="-19.5103" y="886.025" width="35.1601" height="9.59985" class="st7"/>
			<text x="-19.51" y="893.22" class="st2" v:langID="1045"><v:paragraph v:horizAlign="1"/><v:tabList/>Ceny usług</text>		</g>
	</g>
</svg>
